# xmcd CD database file
# Copyright (C) 1993-1998 Ti Kan
# 
# Track frame offsets:
#     183
#     14423
#     27313
#     37115
#     46705
#     56135
#     65520
#     76218
#     87950
#     101543
#     111753
#     121033
# 
# Disc length: 1781 seconds
# 
# Revision: 1
# Processed by: cddbd v1.4b41PL1 Copyright (c) Steve Scherf et al.
# Submitted via: DiscPlay 4.0.4
# 
DISCID=9306f30c
DTITLE=The Dreamlovers - The Best Of The Dreamlovers (Vol. 2)
DYEAR=1900
DGENRE=
TTITLE0=You Gave Me Somebody To Love
TTITLE1=I'm Thru With You
TTITLE2=Anna Belle Lee
TTITLE3=Amazons And Coyotees
TTITLE4=Pretty Little Girl
TTITLE5=For The First Time
TTITLE6=Zoom Zoom Zoom
TTITLE7=Those Will Be The Good Old Days
TTITLE8=Together
TTITLE9=Take It From A Fool
TTITLE10=Callin Joann
TTITLE11=Doin Things Together With You
EXTD=
EXTT0=
EXTT1=
EXTT2=
EXTT3=
EXTT4=
EXTT5=
EXTT6=
EXTT7=
EXTT8=
EXTT9=
EXTT10=
EXTT11=
PLAYORDER=
